<?xml version="1.0" standalone="no"?>
<!DOCTYPE svg PUBLIC "-//W3C//DTD SVG 20010904//EN"
 "http://www.w3.org/TR/2001/REC-SVG-20010904/DTD/svg10.dtd">
<svg version="1.0" xmlns="http://www.w3.org/2000/svg"
 width="387.000000pt" height="387.000000pt" viewBox="0 0 387.000000 387.000000"
 preserveAspectRatio="xMidYMid meet">
<metadata>
Created by potrace 1.11, written by Peter Selinger 2001-2013
</metadata>
<g transform="translate(0.000000,387.000000) scale(0.100000,-0.100000)"
fill="#000000" stroke="none">
<path d="M2175 3705 c-72 -48 -138 -128 -188 -229 -60 -119 -58 -132 21 -180
63 -38 97 -72 131 -128 l22 -38 -28 -11 c-55 -21 -76 -34 -90 -56 -14 -20 -13
-24 10 -47 27 -27 57 -27 109 -1 15 7 29 10 32 7 3 -3 6 -30 6 -61 -1 -182
-59 -326 -141 -346 -51 -13 -69 53 -30 106 13 17 23 42 24 57 2 26 0 27 -38
24 -52 -4 -100 -19 -115 -37 -10 -12 -6 -20 18 -42 79 -75 61 -146 -33 -129
-57 11 -145 122 -214 270 -12 26 -20 50 -18 52 2 2 23 6 46 9 52 7 77 19 91
45 26 49 -39 80 -102 48 l-38 -18 0 39 c0 22 6 60 14 83 24 70 28 134 10 171
-12 25 -33 41 -92 69 -42 20 -91 50 -107 66 -32 31 -67 52 -84 52 -18 0 -51
-43 -51 -67 0 -35 -23 -74 -106 -181 -84 -107 -91 -135 -36 -140 48 -5 114 31
190 104 37 35 72 62 79 60 6 -3 29 -27 50 -54 33 -41 42 -64 57 -138 56 -284
133 -452 237 -521 36 -23 52 -27 113 -27 88 0 143 25 220 100 90 86 125 178
120 314 -2 47 -4 91 -5 99 -2 12 -31 69 -118 235 -22 43 -25 62 -25 141 0 77
3 97 24 134 27 48 75 75 90 51 5 -7 6 -18 4 -25 -9 -24 47 -175 78 -211 51
-58 116 -84 104 -41 -4 12 -18 75 -31 140 -17 85 -21 125 -15 143 35 92 15
122 -85 130 -64 6 -73 4 -110 -21z"/>
<path d="M2667 2641 c3 -27 0 -64 -7 -85 -9 -29 -9 -47 1 -86 12 -45 11 -52
-14 -107 -45 -100 -61 -180 -47 -227 25 -83 95 -161 183 -201 112 -53 271 9
343 132 15 27 44 71 64 98 41 56 56 90 64 152 3 23 24 84 47 135 22 51 43 98
45 105 10 21 -69 12 -116 -13 -59 -32 -161 -126 -152 -140 4 -6 25 -21 48 -32
73 -37 84 -114 22 -152 -27 -16 -35 -17 -48 -6 -42 37 -58 38 -110 9 -53 -30
-59 -42 -34 -67 17 -18 20 -18 84 -20 41 -2 45 -4 42 -25 -6 -38 -36 -84 -71
-108 -34 -23 -112 -40 -130 -28 -17 10 -13 37 10 61 29 31 19 49 -36 63 -54
13 -69 8 -55 -19 16 -30 12 -58 -10 -65 -21 -7 -29 -2 -81 43 -54 47 -62 122
-20 174 l19 23 24 -21 c32 -29 57 -40 101 -43 41 -3 42 -1 23 52 -17 49 -37
69 -84 82 -73 21 -46 66 65 111 40 16 73 32 73 36 0 3 -13 11 -29 16 -19 7
-42 30 -65 66 -31 49 -125 136 -146 136 -5 0 -6 -22 -3 -49z"/>
<path d="M2090 2544 c-92 -67 -175 -74 -276 -24 l-64 31 -46 -20 c-183 -81
-241 -255 -174 -521 30 -121 30 -120 36 -175 5 -44 1 -60 -34 -135 -22 -47
-47 -107 -55 -135 -13 -46 -13 -52 4 -80 61 -98 69 -277 18 -377 l-21 -40 44
-67 c53 -79 101 -186 118 -261 7 -30 16 -70 21 -88 8 -36 5 -293 -5 -332 -3
-14 -9 -41 -12 -60 -4 -19 -11 -41 -17 -47 -7 -10 -4 -13 9 -14 22 -1 78 2 81
5 8 7 18 243 18 401 -1 168 -3 197 -22 250 -12 33 -24 78 -27 100 -4 23 -9 52
-12 65 -12 51 -11 386 1 450 l12 65 1 -110 c1 -60 4 -121 7 -135 3 -13 7 -60
10 -104 4 -44 8 -83 10 -86 2 -4 7 -31 10 -61 3 -30 8 -65 10 -79 3 -14 7 -45
10 -70 4 -25 12 -92 19 -150 14 -109 14 -283 0 -410 -14 -135 -14 -134 29
-135 36 -1 37 0 38 34 2 149 71 355 158 476 19 28 40 55 46 60 42 38 108 180
154 331 32 103 34 108 46 181 4 24 12 46 17 49 6 4 9 3 6 -2 -3 -5 -9 -31 -13
-59 -28 -210 -80 -352 -235 -645 -63 -118 -108 -250 -116 -338 -4 -37 -7 -71
-8 -77 -1 -7 143 -10 414 -10 391 0 418 1 476 20 57 19 129 67 166 110 47 54
69 169 48 245 -39 142 -289 177 -355 50 -27 -51 -17 -154 15 -163 35 -9 50 10
43 59 -8 58 13 83 62 78 71 -6 125 -61 125 -127 0 -78 -104 -158 -240 -186
-110 -22 -157 -26 -287 -21 l-131 5 74 121 c333 549 431 948 271 1107 -66 66
-141 94 -250 93 -26 -1 -46 1 -44 4 125 217 134 486 27 773 -31 82 -94 172
-134 191 -41 19 -34 20 -76 -10z m-41 -431 c26 -19 27 -19 66 4 45 26 83 29
109 10 26 -19 26 -55 -1 -109 -25 -52 -119 -166 -156 -191 l-25 -16 -35 67
c-20 37 -54 86 -77 109 -32 34 -40 49 -36 70 2 16 5 31 5 36 1 4 11 17 22 28
17 17 29 20 62 16 22 -3 52 -14 66 -24z"/>
<path d="M1048 2170 c-40 -24 9 -164 86 -242 23 -24 57 -52 76 -63 20 -11 43
-37 54 -58 27 -55 32 -147 12 -198 -16 -39 -16 -43 0 -60 9 -11 26 -19 37 -19
22 0 90 -67 82 -81 -4 -5 -17 -9 -30 -9 -28 0 -56 -35 -48 -59 13 -36 36 -51
78 -51 55 0 56 -6 46 -156 0 -12 -10 -31 -20 -43 l-19 -22 -7 30 c-3 17 -4 40
0 51 10 32 -1 38 -56 27 -63 -12 -71 -30 -30 -69 38 -36 40 -56 4 -60 -69 -9
-177 44 -199 98 -8 18 -14 47 -14 64 0 26 3 30 29 30 40 0 90 19 100 39 11 21
-3 57 -28 71 -12 6 -37 10 -57 8 -22 -1 -39 3 -45 12 -12 19 -3 69 16 90 8 9
15 28 15 42 0 19 -6 27 -26 32 -53 14 -129 106 -184 222 -108 229 -125 252
-192 246 -20 -2 -58 -61 -58 -91 0 -31 38 -110 76 -156 58 -72 69 -83 107 -98
56 -24 103 -63 136 -116 l31 -47 -14 -73 c-18 -96 -13 -187 17 -259 50 -126
123 -178 248 -180 90 -2 146 23 190 83 36 51 44 88 44 205 0 82 -4 102 -27
150 -14 30 -51 81 -81 112 -51 53 -54 60 -48 90 28 126 -31 339 -122 436 -51
55 -144 92 -179 72z"/>
<path d="M2575 1984 c-78 -40 -144 -149 -150 -250 -6 -86 7 -115 67 -154 115
-75 184 -176 191 -280 10 -153 -210 -759 -320 -881 -61 -69 -83 -100 -83 -121
0 -19 6 -20 161 -14 181 7 236 16 297 52 64 38 122 107 122 146 0 26 -51 77
-82 82 -42 7 -56 -14 -50 -72 4 -44 2 -51 -23 -71 -25 -19 -31 -20 -49 -8 -29
19 -57 82 -58 127 0 46 37 124 74 155 48 40 151 44 220 9 46 -24 98 -75 120
-117 23 -46 27 -130 9 -193 -15 -54 -81 -121 -162 -162 -72 -37 -85 -34 156
-33 l160 1 56 60 c68 72 122 160 148 240 19 58 24 97 36 269 7 101 18 126 48
116 52 -17 83 -17 97 0 19 22 14 77 -11 130 -66 141 -152 18 -224 -320 -32
-148 -58 -233 -98 -308 -29 -56 -92 -128 -128 -148 -19 -10 -19 -11 -4 61 2
14 7 40 10 59 3 18 14 49 24 70 55 108 150 446 177 629 3 20 7 45 10 54 10 36
5 147 -9 179 -35 83 -122 132 -232 131 -38 0 -79 -2 -90 -4 -31 -5 -22 33 23
100 105 157 149 251 156 336 5 52 -16 99 -50 115 -22 10 -31 7 -70 -18 -55
-38 -123 -61 -177 -61 -52 0 -132 37 -171 79 -34 35 -73 40 -121 15z"/>
<path d="M1430 1039 c-75 -40 -177 -44 -288 -10 -119 36 -198 15 -291 -80 -80
-81 -183 -306 -198 -431 -4 -32 -2 -38 14 -38 24 0 77 -47 91 -82 6 -16 10
-28 8 -28 -2 0 -23 11 -47 24 -24 13 -68 31 -98 40 -52 15 -53 15 -48 -4 4
-16 -2 -24 -28 -35 -51 -20 -62 -75 -34 -162 l11 -33 307 0 307 0 35 63 c156
272 92 479 -148 480 l-65 1 27 22 c37 29 95 45 136 37 79 -15 183 -166 193
-279 6 -73 -39 -211 -97 -296 l-18 -28 98 0 99 0 12 59 c14 69 49 126 77 126
18 0 20 -7 19 -61 0 -33 -8 -75 -17 -92 l-15 -32 64 0 c59 0 64 2 65 23 0 12
2 31 5 42 7 35 18 188 18 245 -1 188 -50 384 -126 503 -16 26 -31 47 -32 46 0
0 -17 -9 -36 -20z"/>
</g>
</svg>
